<?xml version="1.0" encoding="utf-8"?>
<!-- Generator: Adobe Illustrator 19.1.0, SVG Export Plug-In . SVG Version: 6.00 Build 0)  -->
<svg version="1.1" id="Layer_1" xmlns="http://www.w3.org/2000/svg" xmlns:xlink="http://www.w3.org/1999/xlink" x="0px" y="0px"
	 width="36px" height="39.1px" viewBox="-5 211 36 39.1" style="enable-background:new -5 211 36 39.1;" xml:space="preserve">
<style type="text/css">
	.st0{fill:#6496AF;}
</style>
<g id="_x38_E8Tr1.tif">
	<g>
		<path class="st0" d="M-1.4,219.2c0-0.3,0.1-0.6,0.1-1c0.2-1.2,0.6-2.2,1.3-3.2c0.5-0.7,1-1.2,1.6-1.7c0.9-0.7,2.1-0.7,3,0.1
			c0.9,0.9,1.8,1.8,2.7,2.7c0.5,0.5,1.1,1.1,1.6,1.6c0.9,0.9,1,2.3,0.1,3.3c-0.6,0.6-1.2,1.2-1.8,1.8c-0.2,0.2-0.3,0.3-0.5,0.5
			c2.2,4.5,5.5,7.8,9.9,10c0.5-0.5,1-1,1.5-1.5c0.3-0.3,0.5-0.5,0.8-0.8c0.8-0.7,1.8-0.9,2.7-0.4c0.4,0.2,0.7,0.5,1,0.8
			c1.3,1.3,2.6,2.6,3.9,3.9c0.4,0.4,0.6,0.8,0.7,1.3c0,0.2,0,0.4,0,0.6c-0.1,0.3-0.2,0.6-0.3,0.9c-0.5,0.8-1.2,1.4-2,2
			c-1.4,1-3,1.4-4.8,1.2c-1.9-0.2-3.6-0.8-5.4-1.5c-1.3-0.6-2.6-1.4-3.8-2.2c-1.5-1.1-2.9-2.2-4.2-3.5c-1.3-1.3-2.5-2.6-3.6-3.9
			c-1.3-1.6-2.5-3.2-3.3-5.1c-0.5-1.1-0.8-2.2-1-3.4c0-0.3-0.1-0.7-0.1-1C-1.4,220.2-1.4,219.7-1.4,219.2z"/>
	</g>
</g>
</svg>
