<?xml version="1.0" encoding="utf-8"?>
<!-- Generator: Adobe Illustrator 19.1.0, SVG Export Plug-In . SVG Version: 6.00 Build 0)  -->
<svg version="1.1" id="Layer_1" xmlns="http://www.w3.org/2000/svg" xmlns:xlink="http://www.w3.org/1999/xlink" x="0px" y="0px"
	 width="601px" height="371px" viewBox="0 0 601 371" style="enable-background:new 0 0 601 371;" xml:space="preserve">
<g id="tibKXQ.tif">
	<g>
		<path d="M0,117.7c0-3,0-6,0-9c1.3-0.4,3.6-0.5,3.8-1.2c1.4-4.4,2.2-9,3.3-13.4c0.5-2.2,0.7-4.6,1.8-6.5
			c8.5-15.7,15.2-32.2,20.2-49.3c2.1-7.2,4.2-14.4,2.2-22.2c-1.1-4.2-0.9-8.6-1.5-14.8c6.3,2.5,11.3,4,15.8,6.5
			c1.5,0.9,1.4,4.5,2,6.9c1.1-2,1.2-4.2,1.6-6.3c0.4-2.4,1-4.8,1.8-8.3C91.2,17.3,134.7,19.9,177,27.2c43.2,7.5,87,6.7,130.7,6.5
			c0.3-1.9,0.5-3.3,0.7-4.6c3.2-1.1,5-0.1,5.6,3c0.8,4.5,3.9,6.8,8,7.3c4,0.5,8.4-0.8,12,0.5c6.5,2.4,12.4,5.9,19.8,5.8
			c3.6-0.1,7.3,1.6,11.1,2.5c0.3,4.4-3.6,5.3-6.3,7.1c-3.5,2.4-7.2,4.4-11.2,6.8c4.7,1.8,8.1,3.1,12.1,4.6
			c4.7-3.2,10.2-6.9,15.8-10.4c2-1.3,4.3-2.1,6.5-3.2c-0.4,2.3-0.7,4.5-1.2,7.3c4.9-1.4,7.4,2.3,9.9,6.2c7.7-2.5,15.1-4.9,21.5-7
			c2.1,1.7,3.4,2.8,4.6,3.9c2.2,2,4.6,3.9,6.5,6.2c0.2,0.3-2.4,2.9-4.1,4.9c3.1,1,6.4,1.7,9.4,3.1c2,0.9,5.1,2.6,5.1,3.9
			c0,5.9,2.2,12.2-2,17.8c-0.9,1.2-0.9,3-1.4,4.5c0.5,0.2,0.9,0.3,1.4,0.5c1.1-1,2.2-2,3.2-3.1c4.5-4.4,7.8-3.9,9.9,2
			c1.7,4.9,2.5,10.1,3.7,15.1c-0.6-0.1-1.2-0.2-1.8-0.3c-2.1,4.1-4.2,8.1-6.5,12.8c3.4,0.7,6.3,2.3,8,1.5
			c9.5-4.4,20.9-5.6,27.9-14.5c3.5-4.5,8.9-7.9,8.4-15.1c-0.2-2.4,2.8-5,6.6-3.6c6.7,2.5,11.5-2,16.7-4.8c3.9-2.2,2.4-6.2,2.4-9.5
			c0.1-7.8,7.8-18.4,15.2-20c4.3-1,8.7-1.4,13.1-2.1c4.6-0.8,9.8-0.8,13.8-2.9c7.5-4,12-16.4,10.2-24.9
			c-2.2-10.5,0.6-14.2,11.1-14.2c0.5,0,1,0.1,1.5,0c5-0.8,7.1,1.2,8.2,6.4c2,9.5,6.9,17.3,16.9,20.5c0,1.7,0,3.3,0,5
			c-5.3,3.6-10.7,7.3-16,11c-0.9,0.6-2.1,1.8-2,2.5c0.9,4.9-3.1,5.5-5.9,7.3c-1.6,1.1-4.2,2.9-4.1,4.1c0.5,4.7-1.7,7.7-5.9,10.4
			c6.6,1,4.3,5.3,4.6,8.4c1.9,4.3,8.7,3.7,8.9,9.4c-10.7,5.2-21.3,10.3-31.8,15.7c-3.8,2-7.8,4.4-6.7,10.2c1.6,0.1,3,0.3,4.9,0.4
			c-1.3,7.3,3,15.3-4.6,21c-0.5,0.4,0.3,2.5,0.5,4.2c-0.7,0.2-1.8,0.6-3,0.9c0,3.2,0,6.1,0,8.9c0,2.8,0,5.5,0,8.3
			c-1.9-0.2-3.6,0.1-4.5-0.6c-4.1-2.8-6.4-6.8-7.4-11.8c-0.6-2.9-2.2-5.6-3.3-8.4c-0.7,0.2-1.4,0.4-2.1,0.7c0.6,3.1,1,6.3,1.8,9.3
			c1.1,4.1,2.3,8.1,3.6,12.1c0.9,2.8,1.4,7.3,3.2,8c7.1,2.9,9.8,9,12.8,15.1c3.5,7.1-3.5,19.2-11.2,19.8c-4,0.4-9.8,5-9.7,8.5
			c0.1,4.1-2.2,5.4-5.4,5.4c-4.4,0-6,2.2-6.8,6.2c-1.9,10-8.8,17.1-16.1,23.1c-3.9,3.3-6.1,6.4-6.8,11.1c-0.3,1.9-0.8,3.9-0.9,5.8
			c-0.1,3-0.8,6.4,0.2,9c2.3,6,5.2,11.8,8.3,17.4c2.9,5.3,6.5,10.4,9.7,15.5c6.6,10.6,10.5,21.2,8.8,33.6c0,0.3,0,0.7,0,1
			c0,7.1-4.6,10.5-11.9,8.5c2.4-4.8-0.1-6.6-4.5-7.2c-5-0.7-8-3.4-8.6-8.5c-0.2-1.4-1-2.8-1.6-4.1c-0.3-0.6-0.9-1.3-1.4-1.3
			c-6-0.7-8.6-3.5-8.8-9.4c0-1.3,0.2-3.5-0.4-3.8c-4.2-2.2-2.4-5.2-1.7-8.3c0.7-3.2,0.1-5.8-3.5-7.8c-3.5-1.9-6.5-5-9.3-8
			c-5.6-6.1-7.2-6.4-13.9-1.4c-3.7,2.7-7.4,2.4-11.2,0.5c-3.2-1.6-6.4-3.6-9.8-4.7c-2.2-0.8-4.8-0.7-7.2-0.5
			c-2.4,0.2-4.7,1.3-7.1,1.4c-11.7,0.8-23.4,1.4-35.1,2.2c-0.7,0-1.3,0.9-2.6,1.8c4,1.9,7.2,4.6,11.4,1.2c0.7-0.5,2.7-0.6,3-0.2
			c0.7,1.2,1.3,2.9,1,4.1c-0.9,3.2-2.3,6.2-3.6,9.5c-1.8-1-3-1.7-4.3-2.4c0,0.5,0.1,1,0.1,1.5c-1.8,0.3-3.7,0.6-5.5,1
			c-1.3,0.3-2.5,0.8-3.7,1.3c-0.8,0.3-1.6,0.9-2.5,1.1c-5.4,1.2-6.3-3.6-8.8-6.4c-2.2-2.5-3.1-6.9-8.3-5.1c-0.1,1.4-0.3,2.8-0.5,4.5
			c-2.1,0-3.9-0.1-5.7,0c-7.4,0.4-14.9,0.3-22.3,1.4c-3.1,0.4-5.9,2.7-8.8-2.4c0,2.9,0.5,4.6-0.1,5.7c-1.4,2.6-2.7,6.1-5,7
			c-5.9,2.4-12.2,4-16.5,9c-5,5.8-9.3,11.9-8.4,20.3c0.5,4.6,0.1,9.4,0.1,14.1c-2.3,0-4.7,0-7,0c0.5-4-1.6-4.2-4.9-3.9
			c-2.2,0.2-5.1,0-6.6-1.2c-3.2-2.6-6-5.8-8.6-9.1c-1.4-1.8-2.7-4.3-2.6-6.5c0.1-3.6-1-6.4-3.4-8.9c-1.6-1.7-3.1-3.5-4.7-5.1
			c-2.6-2.7-3-6.4-4.6-9.3c-2.5-4.5-6.4-9.3-10.9-11.3c-4.2-1.9-10-0.3-15-0.2c-3.1,7.1-6.6,11.3-15.1,5.8c-4.4-2.8-8.4-7.2-7.5-13
			c0.3-2,0.1-4.9-1.1-6.2c-4.5-5.1-9.7-9.5-14.4-14.5c-5-5.2-9.6-10.8-18.1-8.7c-1,0.2-2.2-0.9-3.3-0.8c-2.7,0.3-6.4-2-7.7,2.8
			c-0.2,0.7-2.6,1.1-4,1c-5.2-0.5-10.4-1.1-15.6-1.9c-6.9-1.2-13.8-1.7-20-5.9c-10.2-7-20.9-13.3-31.4-20c-1.2-0.8-2-2-3.1-3
			c-1.2-1.1-2.3-2.8-3.6-3c-8.4-1.4-16.8-2.4-25.2-3.6c-1.5-7.7-0.4-16.5-10.1-20.5c-0.1-1.3-0.3-3-0.5-4.6c-1.9-0.4-4.2-0.2-5-1.2
			c-4-5.2-9.3-8-15.6-8.4c-0.4-6.7-0.5-12.6-1.2-18.5c-0.5-3.8-1.8-7.5-2.8-11.2c-0.9-3-3.1-6,1.2-8.3c0.3-0.1-0.2-2.9-1-3.3
			c-5.6-3.2-2.6-7.9-3.3-12.4c2,1.3,3.2,2.1,5.2,3.3c-0.7-2.9-1.1-4.7-1.5-6.6c-5.7,0.4-6.8-1-5.9-6.6c0.2-1.3-0.3-3.6-1.2-4.2
			c-3.2-2.2-3.9-5-3.7-8.5c0.2-3.8,0.2-7.7,0-11.5C1.9,120.3,0.7,119,0,117.7z M395.4,89.9c-1.7,3.1-3.5,5.7-4.4,8.6
			c-0.9,3.1-1.1,6.5-1.1,9.7c0.1,5.3,0.4,10.6,1.3,15.8c0.6,3.6,2,7.2,3.6,10.5c1.3,2.8,3.5,2.9,5.4,0.4c1.9-2.5,3.5-5.2,5-7.9
			c3.2-5.4,2.8-8.7-1.3-13.3c-0.8-0.9-1.7-2.2-1.7-3.3c0.2-6.1,0.6-12.2,1.1-18.2c0.1-1,1-2.1,1.7-2.9c3.9-4.9,7.8-9.7,11.8-14.6
			c-0.3-0.5-0.6-0.9-0.9-1.4c-2.6-0.2-5.8-1.6-7.6-0.5c-7.1,4.1-16,6.2-18.7,14.9C391.2,88.5,393,89.1,395.4,89.9z"/>
	</g>
</g>
</svg>
